<?xml version="1.0" encoding="utf-8"?>
<svg version="1.2" baseProfile="tiny" id="Layer_1" xmlns="http://www.w3.org/2000/svg"
     xmlns:xlink="http://www.w3.org/1999/xlink"
     x="0px" y="0px" width="100px" height="100px" viewBox="0 0 100 100" overflow="visible" xml:space="preserve">
<path opacity="0.5" fill-rule="evenodd" fill="#2A254C" d="M12,38.6c-4.9,6.8-4.9,16.1,0,22.9l16.8,23.4c4.9,6.8,13.6,9.7,21.5,7.1L77.5,83
	c7.9-2.6,13.3-10.1,13.3-18.5V35.5c0-8.4-5.4-15.9-13.3-18.5L50.3,8.1c-7.9-2.6-16.6,0.2-21.5,7.1L12,38.6z">
<animateTransform accumulate="none" additive="sum" attributeName="transform" attributeType="xml" calcMode="linear"
                  dur="5.5s" fill="remove" from="360 52 52" repeatCount="indefinite" restart="always" to="0 52 52"
                  type="rotate">
		</animateTransform>
</path>
    <path opacity="0.1" fill-rule="evenodd" fill="#322973" d="M92.4,40.3c3.4,6,3.4,13.4,0,19.4L79.5,82.3c-3.4,6-9.8,9.7-16.6,9.7H37.1
	c-6.9,0-13.2-3.7-16.6-9.7L7.6,59.7c-3.4-6-3.4-13.4,0-19.4l12.9-22.6c3.4-6,9.8-9.7,16.6-9.7h25.8c6.9,0,13.2,3.7,16.6,9.7
	L92.4,40.3z">
        <animateTransform accumulate="none" additive="sum" attributeName="transform" attributeType="xml" calcMode="linear"
                          dur="12.5s" fill="remove" from="360 52 52" repeatCount="indefinite" restart="always" to="0 52 52"
                          type="rotate">
		</animateTransform>
    </path>
    <path opacity="0.2" fill-rule="evenodd" fill="#322564" d="M41.9,24.7c4.6-3.3,10.7-3.3,15.3,0l15.6,11.2c4.6,3.3,6.5,9.1,4.7,14.3l-6,18.1
	c-1.7,5.3-6.7,8.9-12.4,8.9H39.9c-5.6,0-10.6-3.6-12.4-8.9l-6-18.1c-1.7-5.3,0.2-11.1,4.7-14.3L41.9,24.7z">
        <animateTransform accumulate="none" additive="sum" attributeName="transform" attributeType="xml" calcMode="linear"
                          dur="8.5s" fill="remove" from="360 52 52" repeatCount="indefinite" restart="always" to="0 52 52"
                          type="rotate">
		</animateTransform>
    </path>
    <path fill-rule="evenodd" fill="#F2F2F3" d="M66.7,38.7c0.7,0.7,0.8,1.8,0.1,2.6L47.1,61.2c-0.4,0.4-0.9,0.6-1.4,0.6
	c-0.5,0-1-0.2-1.4-0.6L34.1,50.3c-0.7-0.7-0.6-1.9,0.1-2.6c0.8-0.7,1.9-0.6,2.6,0.1l8.9,9.4L64,38.8C64.7,38.1,65.9,38,66.7,38.7z"
    >

    </path>
</svg>
